<svg width="24" height="24" viewBox="0 0 24 24" fill="none" xmlns="http://www.w3.org/2000/svg">
<g clip-path="url(#clip0_34_7434)">
<path d="M5.00015 18.9998H9.41415L23.0572 5.35675C23.6415 4.77092 23.9697 3.97723 23.9697 3.14975C23.9697 2.32228 23.6415 1.52858 23.0572 0.942752C22.4628 0.374646 21.6723 0.0576019 20.8502 0.0576019C20.028 0.0576019 19.2375 0.374646 18.6432 0.942752L5.00015 14.5858V18.9998ZM7.00015 15.4138L20.0572 2.35675C20.2707 2.15271 20.5548 2.03885 20.8502 2.03885C21.1455 2.03885 21.4296 2.15271 21.6432 2.35675C21.8531 2.56727 21.971 2.85244 21.971 3.14975C21.971 3.44706 21.8531 3.73224 21.6432 3.94275L8.58615 16.9998H7.00015V15.4138Z" fill="#F2F2F2"/>
<path d="M23.621 7.622L22 9.243V16H16V22H2V3C2 2.73478 2.10536 2.48043 2.29289 2.29289C2.48043 2.10536 2.73478 2 3 2H14.758L16.379 0.379C16.525 0.243624 16.6789 0.117066 16.84 0L3 0C2.20435 0 1.44129 0.31607 0.87868 0.87868C0.31607 1.44129 0 2.20435 0 3L0 24H18.414L24 18.414V7.161C23.8827 7.32186 23.7561 7.47579 23.621 7.622ZM18 21.586V18H21.586L18 21.586Z" fill="#F2F2F2"/>
</g>
<defs>
<clipPath id="clip0_34_7434">
<rect width="24" height="24" fill="white"/>
</clipPath>
</defs>
</svg>
